<?xml version="1.0" encoding="UTF-8" standalone="no"?>
<!-- Created with Inkscape (http://www.inkscape.org/) -->

<svg
   xmlns:dc="http://purl.org/dc/elements/1.1/"
   xmlns:cc="http://creativecommons.org/ns#"
   xmlns:rdf="http://www.w3.org/1999/02/22-rdf-syntax-ns#"
   xmlns:svg="http://www.w3.org/2000/svg"
   xmlns="http://www.w3.org/2000/svg"
   xmlns:xlink="http://www.w3.org/1999/xlink"
   xmlns:sodipodi="http://sodipodi.sourceforge.net/DTD/sodipodi-0.dtd"
   xmlns:inkscape="http://www.inkscape.org/namespaces/inkscape"
   width="6047.2441"
   height="1889.7638"
   viewBox="0 0 1600 500"
   version="1.1"
   id="svg849"
   inkscape:export-filename="C:\Users\MAYANK\Desktop\path1503.png"
   inkscape:export-xdpi="42.459999"
   inkscape:export-ydpi="42.459999"
   inkscape:version="0.92.4 (5da689c313, 2019-01-14)"
   sodipodi:docname="drawing2.svg">
  <defs
     id="defs843">
    <linearGradient
       inkscape:collect="always"
       id="linearGradient1501">
      <stop
         style="stop-color:#7fff2a;stop-opacity:1"
         offset="0"
         id="stop1497" />
      <stop
         id="stop1505"
         offset="0.6687094"
         style="stop-color:#538253;stop-opacity:1" />
      <stop
         style="stop-color:#b3ff80;stop-opacity:0;"
         offset="1"
         id="stop1499" />
    </linearGradient>
    <linearGradient
       inkscape:collect="always"
       id="linearGradient1481">
      <stop
         style="stop-color:#7fff2a;stop-opacity:1"
         offset="0"
         id="stop1477" />
      <stop
         style="stop-color:#748d00;stop-opacity:0"
         offset="1"
         id="stop1479" />
    </linearGradient>
    <inkscape:path-effect
       effect="spiro"
       id="path-effect1475"
       is_visible="true" />
    <inkscape:path-effect
       effect="spiro"
       id="path-effect6225"
       is_visible="true" />
    <linearGradient
       inkscape:collect="always"
       xlink:href="#linearGradient1481"
       id="linearGradient1483"
       x1="1204.5552"
       y1="85.982254"
       x2="1432.7097"
       y2="50.074516"
       gradientUnits="userSpaceOnUse" />
    <linearGradient
       inkscape:collect="always"
       xlink:href="#linearGradient1501"
       id="linearGradient1503"
       x1="1204.5552"
       y1="85.982254"
       x2="1432.7097"
       y2="50.074516"
       gradientUnits="userSpaceOnUse" />
  </defs>
  <sodipodi:namedview
     id="base"
     pagecolor="#ffffff"
     bordercolor="#666666"
     borderopacity="1.0"
     inkscape:pageopacity="0.0"
     inkscape:pageshadow="2"
     inkscape:zoom="0.14"
     inkscape:cx="3550.2299"
     inkscape:cy="1088.7924"
     inkscape:document-units="mm"
     inkscape:current-layer="layer1"
     showgrid="false"
     units="px"
     inkscape:window-width="1600"
     inkscape:window-height="837"
     inkscape:window-x="-8"
     inkscape:window-y="-8"
     inkscape:window-maximized="1" />
  <metadata
     id="metadata846">
    <rdf:RDF>
      <cc:Work
         rdf:about="">
        <dc:format>image/svg+xml</dc:format>
        <dc:type
           rdf:resource="http://purl.org/dc/dcmitype/StillImage" />
        <dc:title></dc:title>
      </cc:Work>
    </rdf:RDF>
  </metadata>
  <g
     inkscape:label="Layer 1"
     inkscape:groupmode="layer"
     id="layer1"
     transform="translate(0,203)">
    <path
       style="fill:none;fill-opacity:1;stroke:#00ff00;stroke-width:11.04628658;stroke-linecap:round;stroke-miterlimit:4;stroke-dasharray:none;stroke-opacity:1"
       id="path1503"
       sodipodi:type="arc"
       sodipodi:cx="-77.595818"
       sodipodi:cy="-254.67412"
       sodipodi:rx="118.68354"
       sodipodi:ry="118.68354"
       sodipodi:start="0"
       sodipodi:end="3.1421054"
       d="m 41.087723,-254.67412 a 118.68354,118.68354 0 0 1 -59.359338,102.7931 118.68354,118.68354 0 0 1 -118.701105,-0.0304 118.68354,118.68354 0 0 1 -59.30662,-102.82352"
       sodipodi:open="true"
       transform="rotate(112.95374)"
       inkscape:export-filename="C:\Users\MAYANK\Desktop\path1503.png"
       inkscape:export-xdpi="42.459999"
       inkscape:export-ydpi="42.459999" />
    <path
       style="fill:none;stroke:#9b0a86;stroke-width:5.16499996;stroke-linecap:round;stroke-linejoin:miter;stroke-miterlimit:4;stroke-dasharray:none;stroke-opacity:1"
       d="m 60.883265,155.3934 c 5.99412,-4.38835 10.002615,-11.3891 10.753013,-18.77991 0.146178,-1.43973 0.174778,-2.89012 0.344101,-4.32731 0.169324,-1.43719 0.486926,-2.87838 1.170408,-4.15394 0.725354,-1.3537 1.856737,-2.4846 3.205086,-3.21985 1.348349,-0.73526 2.908216,-1.07371 4.440849,-0.97528 1.532632,0.0984 3.033373,0.63191 4.291142,1.5132 1.257769,0.88129 2.269911,2.10679 2.90857,3.50348 0.63866,1.3967 0.903486,2.96065 0.772257,4.49082 -0.13123,1.53017 -0.656995,3.0234 -1.503356,4.30493 -1.692724,2.56306 -4.684465,4.19393 -7.75361,4.31618 -3.014793,0.12008 -6.055368,-1.19941 -8.026897,-3.48337"
       id="path6223"
       inkscape:connector-curvature="0"
       inkscape:path-effect="#path-effect6225"
       inkscape:original-d="m 60.883265,155.3934 c 3.584601,-6.26024 7.168941,-12.52021 10.753013,-18.77991 3.584075,-6.25971 1.009938,-5.65443 1.514509,-8.48125 0.504571,-2.82682 4.24089,9.28872 6.360938,13.93348 2.120048,4.64476 -5.350999,-2.32251 -8.026897,-3.48337"
       inkscape:export-xdpi="42.459999"
       inkscape:export-ydpi="42.459999"
       transform="matrix(5.9712701,0,0,5.9712701,-218.61314,-789.2718)"
       inkscape:export-filename="C:\Users\MAYANK\Desktop\path1503.png" />
    <path
       style="fill:#04ee00;fill-opacity:1;stroke:none;stroke-width:2.51396203px;stroke-linecap:butt;stroke-linejoin:miter;stroke-opacity:1"
       d="m 229.09949,91.005991 c 0,0 28.35724,-5.38 52.02977,-23.31346 23.67249,-17.93339 34.76945,-33.17667 34.76945,-33.17667 0.70859,-1.58107 -0.38695,31.6697 -20.04005,55.73452 -15.00457,18.372829 -31.80467,29.173829 -50.02482,34.118769 -10.31416,2.79926 -16.73435,-33.363159 -16.73435,-33.363159 z"
       id="path6232"
       inkscape:connector-curvature="0"
       sodipodi:nodetypes="cscssc"
       inkscape:export-xdpi="42.459999"
       inkscape:export-ydpi="42.459999"
       inkscape:export-filename="C:\Users\MAYANK\Desktop\path1503.png" />
    <path
       style="fill:#04ff00;fill-opacity:1;stroke:none;stroke-width:2.20379782px;stroke-linecap:butt;stroke-linejoin:miter;stroke-opacity:1"
       d="m 295.80196,147.49611 c 0,0 -21.79164,-5.38 -39.98325,-23.31339 -18.19157,-17.93339 -26.71922,-33.176729 -26.71922,-33.176729 -0.54457,-1.58102 0.29738,31.669699 15.40015,55.734579 11.53055,18.37281 24.44088,29.17379 38.44249,34.11869 7.92611,2.7993 12.85983,-33.36315 12.85983,-33.36315 z"
       id="path6232-1"
       inkscape:connector-curvature="0"
       sodipodi:nodetypes="cscssc"
       inkscape:export-xdpi="42.459999"
       inkscape:export-ydpi="42.459999"
       inkscape:export-filename="C:\Users\MAYANK\Desktop\path1503.png" />
    <rect
       style="fill:#000000;fill-opacity:1;stroke:none;stroke-width:1.75294995;stroke-linecap:round;stroke-miterlimit:4;stroke-dasharray:none;stroke-opacity:1"
       id="rect1421"
       width="949.93341"
       height="600.76294"
       x="793.70581"
       y="-237.70016"
       ry="0"
       transform="matrix(1,0,0.53549184,0.8445404,0,0)" />
    <text
       xml:space="preserve"
       style="font-style:normal;font-variant:normal;font-weight:normal;font-stretch:normal;font-size:83.97927856px;line-height:0;font-family:'Showcard Gothic';-inkscape-font-specification:'Showcard Gothic';letter-spacing:0px;word-spacing:0px;fill:#000000;fill-opacity:1;stroke:none;stroke-width:2.09948182"
       x="439.28214"
       y="-37.992931"
       id="text1457"><tspan
         sodipodi:role="line"
         x="439.28214"
         y="-37.992931"
         id="tspan1455"
         style="stroke-width:2.09948182"><tspan
           x="439.28214"
           y="-37.992931"
           style="font-style:normal;font-variant:normal;font-weight:normal;font-stretch:normal;line-height:0;font-family:'Brush Script Std';-inkscape-font-specification:'Brush Script Std';stroke-width:2.09948182"
           id="tspan1453">Learning</tspan></tspan></text>
    <text
       xml:space="preserve"
       style="font-style:normal;font-variant:normal;font-weight:normal;font-stretch:normal;font-size:97.21438599px;line-height:1.25;font-family:'Showcard Gothic';-inkscape-font-specification:'Showcard Gothic';letter-spacing:0px;word-spacing:0px;fill:#000000;fill-opacity:1;stroke:none;stroke-width:2.4303596"
       x="696.92853"
       y="81.808258"
       id="text1471"><tspan
         sodipodi:role="line"
         x="834.96533"
         y="0"
         id="tspan1469"
         style="stroke-width:2.4303596"><tspan
           x="696.92853"
           y="81.808258"
           style="font-style:normal;font-variant:normal;font-weight:normal;font-stretch:normal;font-family:'Brush Script Std';-inkscape-font-specification:'Brush Script Std';stroke-width:2.4303596"
           id="tspan1465">Wh</tspan><tspan
           x="834.96533"
           y="81.808258"
           style="fill:#ffffff;stroke-width:2.4303596;-inkscape-font-specification:'Brush Script Std';font-family:'Brush Script Std';font-weight:normal;font-style:normal;font-stretch:normal;font-variant:normal"
           id="tspan1467">ile</tspan></tspan></text>
    <text
       xml:space="preserve"
       style="font-style:normal;font-variant:normal;font-weight:normal;font-stretch:normal;font-size:78.53973389px;line-height:1.25;font-family:'Showcard Gothic';-inkscape-font-specification:'Showcard Gothic';letter-spacing:0px;word-spacing:0px;fill:#000000;fill-opacity:1;stroke:none;stroke-width:1.96349335"
       x="946.26825"
       y="185.34659"
       id="text1463"><tspan
         sodipodi:role="line"
         x="946.26825"
         y="185.34659"
         id="tspan1461"
         style="stroke-width:1.96349335"><tspan
           x="946.26825"
           y="185.34659"
           style="font-style:normal;font-variant:normal;font-weight:normal;font-stretch:normal;font-family:'Brush Script Std';-inkscape-font-specification:'Brush Script Std';fill:#ffffff;stroke-width:1.96349335"
           id="tspan1459">playing</tspan></tspan></text>
    <path
       style="fill:url(#linearGradient1503);stroke:url(#linearGradient1483);stroke-width:0.26458332px;stroke-linecap:butt;stroke-linejoin:miter;stroke-opacity:1;fill-opacity:1"
       d="m 1198.1845,-31.839284 c -2.2234,-9.157409 -0.8846,-19.100146 3.5189,-27.431434 4.4036,-8.331288 11.8044,-15.003175 20.4747,-18.694688 8.6703,-3.691513 18.5442,-4.410585 27.7039,-2.196552 9.1596,2.214033 17.5693,7.32249 23.8977,14.304817 6.0811,6.709481 10.1787,14.948806 13.942,23.184959 3.7634,8.236153 7.3087,16.654144 12.5164,24.062064 10.0779,14.3358915 25.5714,23.8051675 40.9894,32.133903 15.4179,8.328735 31.4915,16.126124 44.0552,28.342287 18.7212,18.203277 27.8177,45.792774 23.5977,71.561628 -4.2199,25.76886 -21.64,49.01459 -45.1862,60.30254 -23.5463,11.28795 -52.5767,10.31185 -75.3132,-2.52926 -22.7365,-12.8411 -38.5612,-37.19676 -41.0596,-63.18907 -1.28,-13.316044 0.7272,-26.696105 1.5691,-40.047001 0.842,-13.350897 0.4089,-27.253056 -5.3488,-39.328003 -5.482,-11.496827 -15.2469,-20.2552285 -24.3282,-29.18602872 -4.5407,-4.46540008 -8.9824,-9.06767668 -12.7293,-14.21725828 -3.7469,-5.149582 -6.7971,-10.884228 -8.2997,-17.072903 z"
       id="path1473"
       inkscape:connector-curvature="0"
       inkscape:path-effect="#path-effect1475"
       inkscape:original-d="m 1198.1845,-31.839284 c -15.1193,-20.158467 50.3971,-22.678835 75.5952,-34.017857 25.1982,-11.339021 17.6392,31.497751 26.4584,47.247023 8.8191,15.7492726 56.6967,40.317195 85.0446,60.47619 28.348,20.159006 -91.9739,44.096945 -137.9613,66.145838 -45.9874,22.04887 -2.5196,-52.916936 -3.7797,-79.375004 -1.2602,-26.4580687 -30.2379,-40.317724 -45.3572,-60.47619 z" />
  </g>
</svg>
